<?xml version="1.0" encoding="UTF-8" standalone="no"?>
<!-- Created with Inkscape (http://www.inkscape.org/) -->

<svg
   version="1.1"
   id="svg900"
   width="334.172"
   height="27.061768"
   viewBox="0 0 334.172 27.061768"
   sodipodi:docname="2484981_343359-PAPH8R-589.eps"
   xmlns:inkscape="http://www.inkscape.org/namespaces/inkscape"
   xmlns:sodipodi="http://sodipodi.sourceforge.net/DTD/sodipodi-0.dtd"
   xmlns="http://www.w3.org/2000/svg"
   xmlns:svg="http://www.w3.org/2000/svg">
  <defs
     id="defs904" />
  <sodipodi:namedview
     id="namedview902"
     pagecolor="#ffffff"
     bordercolor="#000000"
     borderopacity="0.25"
     inkscape:showpageshadow="2"
     inkscape:pageopacity="0.0"
     inkscape:pagecheckerboard="0"
     inkscape:deskcolor="#d1d1d1"
     showgrid="false" />
  <g
     id="g908"
     inkscape:groupmode="layer"
     inkscape:label="Page 1"
     transform="matrix(1.3333333,0,0,-1.3333333,-222.24666,159.76917)">
    <g
       id="g1931"
       inkscape:export-filename="../../../Volumes/Hub Drive/Projects/bmckenzie-portfolio/public/ornament.png"
       inkscape:export-xdpi="96"
       inkscape:export-ydpi="96">
      <path
         d="m 322.6,108.837 c 0.015,0.108 0.669,0.663 3.402,1.202 2.607,0.514 5.995,0.797 9.54,0.797 0.991,0 1.999,-0.023 2.995,-0.066 20.727,-0.921 36.726,-1.513 48.723,-1.894 -0.468,-0.015 -0.944,-0.029 -1.422,-0.044 h -63.236 c 0,0.002 -10e-4,0.004 -0.002,0.005 z m -1.028,10e-4 c 0,-1.424 7.657,-3.038 17.037,-2.578 52.175,2.562 78.384,2.578 78.705,2.578 -0.321,0.001 -21.109,0.02 -78.705,2.578 -9.385,0.417 -17.037,-1.154 -17.037,-2.578"
         style="fill:#624537;fill-opacity:1;fill-rule:nonzero;stroke:none;stroke-width:0.1"
         id="path996" />
      <path
         d="m 317.349,110.262 c -0.789,0 -1.43,-0.642 -1.43,-1.43 0,-0.788 0.641,-1.429 1.43,-1.429 0.788,0 1.428,0.641 1.428,1.429 0,0.788 -0.64,1.43 -1.428,1.43 z m 0,-3.812 c -1.314,0 -2.383,1.069 -2.383,2.382 0,1.314 1.069,2.382 2.383,2.382 1.312,0 2.381,-1.068 2.381,-2.382 0,-1.313 -1.069,-2.382 -2.381,-2.382"
         style="fill:#624537;fill-opacity:1;fill-rule:nonzero;stroke:none;stroke-width:0.1"
         id="path998" />
      <path
         d="m 322.602,108.355 h -2.872 v 0.954 h 2.872 v -0.954"
         style="fill:#624537;fill-opacity:1;fill-rule:nonzero;stroke:none;stroke-width:0.1"
         id="path1000" />
      <path
         d="m 314.848,108.355 h -4.636 v 0.954 h 4.636 v -0.954"
         style="fill:#624537;fill-opacity:1;fill-rule:nonzero;stroke:none;stroke-width:0.1"
         id="path1002" />
      <path
         d="m 261.398,108.832 h -63.236 c -0.478,0.015 -0.954,0.029 -1.422,0.044 11.997,0.381 27.996,0.973 48.723,1.894 0.996,0.043 2.004,0.066 2.995,0.066 3.545,0 6.933,-0.283 9.541,-0.797 2.732,-0.539 3.386,-1.094 3.401,-1.202 0,-0.001 -10e-4,-0.003 -0.002,-0.005 z m -16.007,2.584 c -57.596,-2.558 -78.385,-2.577 -78.706,-2.578 0.321,0 26.531,-0.016 78.706,-2.578 9.38,-0.46 17.037,1.154 17.037,2.578 0,1.424 -7.651,2.995 -17.037,2.578"
         style="fill:#624537;fill-opacity:1;fill-rule:nonzero;stroke:none;stroke-width:0.1"
         id="path1004" />
      <path
         d="m 265.223,108.832 c 0,-0.788 0.641,-1.429 1.429,-1.429 0.788,0 1.429,0.641 1.429,1.429 0,0.788 -0.641,1.43 -1.429,1.43 -0.788,0 -1.429,-0.642 -1.429,-1.43 z m -0.953,0 c 0,1.314 1.068,2.382 2.382,2.382 1.313,0 2.382,-1.068 2.382,-2.382 0,-1.313 -1.069,-2.382 -2.382,-2.382 -1.314,0 -2.382,1.069 -2.382,2.382"
         style="fill:#624537;fill-opacity:1;fill-rule:nonzero;stroke:none;stroke-width:0.1"
         id="path1006" />
      <path
         d="m 261.399,108.355 h 2.871 v 0.954 h -2.871 v -0.954"
         style="fill:#624537;fill-opacity:1;fill-rule:nonzero;stroke:none;stroke-width:0.1"
         id="path1008" />
      <path
         d="m 269.152,108.355 h 4.636 v 0.954 h -4.636 v -0.954"
         style="fill:#624537;fill-opacity:1;fill-rule:nonzero;stroke:none;stroke-width:0.1"
         id="path1010" />
      <path
         d="m 311.626,111.436 c -0.634,4.66 -5.975,5.831 -9.811,4.689 -5.644,-1.68 -9.974,-6.752 -14.88,-9.808 -2.997,-1.866 -7.112,-3.287 -10.389,-1.212 -1.536,0.973 -2.74,2.806 -2.583,4.689 0.205,2.446 2.702,4.201 4.989,3.038 0.755,-0.384 1.255,0.818 0.448,1.063 -3.36,1.015 -6.539,-2.443 -5.502,-5.726 1.384,-4.379 6.565,-4.958 10.293,-3.545 5.612,2.127 9.718,7.101 14.97,9.892 3.196,1.699 7.824,2.541 10.24,-0.924 2.177,-3.122 -0.214,-6.725 -3.901,-5.808 -0.42,0.104 -0.798,-0.446 -0.443,-0.762 2.936,-2.614 7.02,1.103 6.569,4.414"
         style="fill:#624537;fill-opacity:1;fill-rule:nonzero;stroke:none;stroke-width:0.1"
         id="path1012" />
      <path
         d="m 305.618,112.524 c -11.417,-0.431 -21.831,-19.4709 -32.812,-7.533 -0.07,0.076 -0.211,-0.027 -0.146,-0.112 1.654,-2.184 3.054,-4.138 5.827,-4.9419 2.747,-0.7949 5.694,-0.3539 8.297,0.7149 7.004,2.878 11.25,9.703 18.902,11.376 0.277,0.061 0.217,0.507 -0.068,0.496"
         style="fill:#624537;fill-opacity:1;fill-rule:nonzero;stroke:none;stroke-width:0.1"
         id="path1014" />
      <path
         d="m 308.168,118.491 c -8.314,5.814 -16.619,-9.228 -24.366,-9.301 -0.12,-0.001 -0.119,-0.182 0,-0.185 4.023,-0.119 6.926,2.238 10.023,4.526 1.878,1.388 3.819,2.679 5.983,3.578 2.859,1.188 5.216,0.981 8.199,0.788 0.342,-0.021 0.398,0.429 0.161,0.594"
         style="fill:#624537;fill-opacity:1;fill-rule:nonzero;stroke:none;stroke-width:0.1"
         id="path1016" />
    </g>
  </g>
</svg>
